<svg id="Layer_1" data-name="Layer 1" xmlns="http://www.w3.org/2000/svg" viewBox="0 0 1000 1000"><defs><style>.cls-1{fill:#525252;}.cls-2{fill:#7a7a77;}.cls-3{fill:#e5e3da;}.cls-4{fill:#7b7675;}.cls-5{fill:#d8dad4;}.cls-6{fill:#ece9de;}.cls-7{fill:#a59e93;}.cls-8{fill:#e5eae6;}.cls-9{fill:#f6f4e8;}.cls-10{fill:#dfdcce;}.cls-11{fill:#aeaa9e;}.cls-12{fill:#f3f1e6;}.cls-13{fill:#ebe9dd;}.cls-14{fill:#b6b2a7;}.cls-15{fill:#ebeae1;}.cls-16{fill:#b1ada2;}.cls-17{fill:#ebe6d9;}.cls-18{fill:#e5e8e3;}.cls-19{fill:#767571;}.cls-20{fill:#777774;}.cls-21{fill:#e8e6da;}.cls-22{fill:#a4a194;}.cls-23{fill:#ecebe4;}.cls-24{fill:#ece7db;}.cls-25{fill:#e2ddcd;}.cls-26{fill:#8c8e8a;}.cls-27{fill:#d9d4c6;}.cls-28{fill:#696866;}.cls-29{fill:#aaaba8;}.cls-30{fill:#d5d3c5;}.cls-31{fill:#aaa69c;}.cls-32{fill:#aaaa9d;}.cls-33{fill:#f6f1e6;}.cls-34{fill:#efece0;}.cls-35{fill:#afa99d;}.cls-36{fill:#9d9a91;}.cls-37{fill:#afaa9d;}.cls-38{fill:#4e4360;stroke:#8c8e8a;stroke-miterlimit:10;stroke-width:0.5px;}.cls-39{fill:#767471;}.cls-40{fill:#dcdbd3;}.cls-41{fill:#808182;}.cls-42{fill:#bdbaaf;}.cls-43{fill:#f1efe5;}.cls-44{fill:#d2d0c8;}.cls-45{fill:#cccbc0;}.cls-46{fill:#9b978d;}.cls-47{fill:#b8b6b0;}.cls-48{fill:#eeede5;}.cls-49{fill:#afaba1;}.cls-50{fill:#979288;}.cls-51{fill:#dbd4c5;}.cls-52{fill:#eeeae1;}.cls-53{fill:#f4f4ed;}</style></defs><title>lighthouse</title><polygon class="cls-1" points="499.1 210.11 499.6 156.1 507.6 156.1 507.6 212.11 499.6 212.11 499.1 210.11"/><polygon class="cls-1" points="516.35 210.11 516.85 156.1 524.85 156.1 524.85 212.11 516.85 212.11 516.35 210.11"/><polygon class="cls-1" points="538.11 210.11 538.61 156.1 546.61 156.1 546.61 212.11 538.61 212.11 538.11 210.11"/><polygon class="cls-2" points="506.35 225.65 542.19 225.07 547.36 229.07 507.76 227.99 506.35 225.65"/><path class="cls-2" d="M592.87,232.62s-4.47-21.13-68-20.49c-63.48-.63-67.57,20.49-67.57,20.49l8.78,9.3c15.6-15.16,53.92-15.88,59-15.9s43.39.74,59,15.9Z"/><polygon class="cls-3" points="581.87 255.58 577.53 255.99 574.95 251.99 581.87 253.99 581.87 255.58"/><polygon class="cls-4" points="901.93 717.68 521.85 697.67 665.88 781.69 901.93 723.68 901.93 717.68"/><polygon class="cls-5" points="899.77 716.18 645.54 701.51 645.54 713.51 899.77 727.85 899.77 716.18"/><polygon class="cls-6" points="871.93 731.44 643.04 720.01 645.54 713.51 899.77 727.85 871.93 731.44"/><polygon class="cls-4" points="119.76 725.68 405.83 695.67 405.83 769.69 119.76 739.68 119.76 725.68"/><polygon class="cls-7" points="195.28 740.18 400.32 717.68 401.57 709.17 153.77 738.68 182.28 742.18 195.28 740.18"/><polygon class="cls-8" points="401.57 695.34 112.51 725.68 123.1 740.18 153.77 738.68 404.08 709.17 404.08 695.34 401.57 695.34"/><polygon class="cls-9" points="472.34 375.6 472.34 253.58 492.35 245.57 556.36 245.57 578.36 253.58 578.36 377.38 472.34 379.6 472.34 375.6"/><polygon class="cls-10" points="505.35 209.57 505.85 155.55 513.85 155.55 513.85 211.57 505.85 211.57 505.35 209.57"/><polygon class="cls-10" points="525.35 209.57 525.85 155.55 533.85 155.55 533.85 211.57 525.85 211.57 525.35 209.57"/><polygon class="cls-10" points="547.36 211.57 547.86 157.56 555.86 157.56 555.86 213.57 547.86 213.57 547.36 211.57"/><polygon class="cls-10" points="491.35 211.57 491.79 157.56 498.85 157.56 498.85 213.57 491.79 213.57 491.35 211.57"/><polygon class="cls-11" points="65.75 823.7 133.77 811.7 119.76 691.67 65.75 693.67 65.75 823.7"/><polygon class="cls-12" points="9.74 813.7 65.75 823.7 65.75 693.67 21.74 691.67 9.74 813.7"/><polygon class="cls-13" points="963.95 685.67 965.95 805.7 897.93 781.69 897.93 683.67 963.95 685.67"/><polygon class="cls-14" points="991.96 793.69 965.95 805.7 963.95 685.67 985.95 683.67 991.96 793.69"/><polygon class="cls-15" points="549.86 781.69 391.82 765.69 423.83 405.61 545.86 397.61 549.86 781.69"/><polygon class="cls-16" points="621.87 411.61 649.88 739.68 615.87 785.69 549.86 781.69 545.86 397.61 621.87 411.61"/><polygon class="cls-17" points="71.75 739.68 127.27 736.68 571.86 777.69 561.86 895.72 74.82 822.1 71.75 739.68"/><polygon class="cls-18" points="707.89 891.72 699.89 763.69 901.93 723.68 959.95 723.68 959.95 747.68 953.95 749.68 953.89 801.44 707.89 891.72"/><polygon class="cls-19" points="409.83 401.61 547.86 391.61 545.86 397.61 421.83 407.61 409.83 401.61"/><polygon class="cls-20" points="635.88 405.61 621.87 411.61 545.86 397.61 547.86 391.61 635.88 405.61"/><polygon class="cls-21" points="407.83 401.61 407.83 381.6 547.86 371.6 547.86 391.61 407.83 401.61"/><polygon class="cls-22" points="639.88 405.61 639.88 387.61 547.86 371.6 547.86 391.61 639.88 405.61"/><path class="cls-23" d="M562.39,209.57H488.24c-12.36,0-30.9,10-30.9,10v12c14.42-10,30.9-12,30.9-12h74.15s16.48,2,30.9,12v-12S574.75,209.57,562.39,209.57Z"/><path class="cls-24" d="M529.85,237.57h-8c-38,0-52,10-52,10v8s8-8,56-8,56,8,56,8v-8S567.86,237.57,529.85,237.57Z"/><path class="cls-25" d="M529.46,226.57h-8.22c-39,0-53.4,13.52-53.4,13.52v10.82s8.22-10.82,57.51-10.82,57.51,10.82,57.51,10.82V240.09S568.49,226.57,529.46,226.57Z"/><path class="cls-26" d="M557.86,151.55c-2-4-28-46-28-46v-10h-12v10s-26,42-28,46-2,6-2,6v11.13h3.5s.5-10.67,32.51-11.11c32,.43,32.51,11.11,32.51,11.11h3.5V157.55S559.86,155.55,557.86,151.55Z"/><polyline class="cls-6" points="894.43 682 941.44 679.67 989.62 679.67 964.95 682 894.43 682"/><path class="cls-27" d="M467.84,250.91h2v-1.65A4.91,4.91,0,0,0,467.84,250.91Z"/><path class="cls-27" d="M582.87,250.91h-1V250S582.72,250.72,582.87,250.91Z"/><path class="cls-3" d="M469.84,255.58h2.5v-1.49A12.31,12.31,0,0,0,469.84,255.58Z"/><path class="cls-28" d="M584.07,241.93h-1.2v-1.26A4.16,4.16,0,0,1,584.07,241.93Z"/><path class="cls-28" d="M465.92,241.91h1.92v-1.82A15,15,0,0,0,465.92,241.91Z"/><polygon class="cls-2" points="457.34 232.62 457.86 231.21 457.34 231.57 457.34 232.62"/><polygon class="cls-2" points="592.87 232.62 593.28 231.57 592.08 230.76 592.87 232.62"/><path class="cls-29" d="M522.85,148.32c-30.87.38-35.36,8.46-36,10.59v9.64h3.5s.5-10.67,32.51-11.11c32,.43,32.51,11.11,32.51,11.11h3.5v-9.64C558.21,156.79,553.72,148.7,522.85,148.32Z"/><polygon class="cls-19" points="621.87 411.61 639.88 405.61 547.86 391.61 621.87 411.61"/><polygon class="cls-30" points="894.43 688.84 964.95 690.67 964.95 682 894.43 682 894.43 688.84"/><polygon class="cls-31" points="989.62 686.34 989.62 679.67 964.95 682 964.95 690.67 989.62 686.34"/><polygon class="cls-32" points="15.41 690.5 74.25 687 74.25 693 65.25 693 15.41 690.5"/><polygon class="cls-33" points="123.1 690 74.25 687 74.25 693 117.43 692 123.1 690"/><polygon class="cls-34" points="65.25 693 13.24 690.84 13.24 698.67 65.25 700.67 65.25 693"/><polygon class="cls-35" points="124.43 695.76 124.43 690 65.25 693 65.25 700.67 124.43 695.76"/><polygon class="cls-36" points="700.89 796.57 958.95 732.81 958.95 726.68 700.89 788.36 700.89 796.57"/><polygon class="cls-37" points="703.56 795.76 711.41 889.32 953.89 800.68 953.94 752.51 959.95 746.45 958.95 731.44 703.56 795.76"/><path class="cls-26" d="M525.41,95.48s1.47-8.28,1.47-10.16-.27-8.14-.52-8.52-1.57-4.38-.57-5.51c0,0,4.53,1.37,5,1s2.26-.63,2.76-10c0,0-1.12-1.63-1.74,0a67.77,67.77,0,0,0-1.62,6.63s-4-1.38-4-1.88.13-5.47.13-5.47-3-2-5,0-.25,5-.87,5.6-4,1.38-3.5,3.13,2.13,5.38,2.13,5.38,1.88,8.19,2,8.56.25,12.32.25,12.32h3.5Z"/><line class="cls-38" x1="536.85" y1="45.86" x2="526.81" y2="82.57"/><polygon class="cls-39" points="506.85 822.78 516.85 823.37 516.85 834.7 506.85 834.04 506.85 822.78"/><polygon class="cls-39" points="470.84 818.78 480.84 819.37 480.84 830.7 470.84 830.03 470.84 818.78"/><polygon class="cls-39" points="434.83 814.78 444.83 815.37 444.83 826.7 434.83 826.03 434.83 814.78"/><polygon class="cls-39" points="404.83 810.78 414.83 811.36 414.83 822.7 404.83 822.03 404.83 810.78"/><polygon class="cls-39" points="370.82 806.78 380.82 807.36 380.82 818.7 370.82 818.03 370.82 806.78"/><polygon class="cls-39" points="338.81 802.78 348.81 803.36 348.81 814.7 338.81 814.03 338.81 802.78"/><polygon class="cls-40" points="564.86 820.83 559.95 896.34 557.65 895.08 564.86 820.83"/><polygon class="cls-12" points="484.84 811.09 458.84 808.93 458.84 880.18 484.84 884.1 484.84 811.09"/><polygon class="cls-12" points="452.84 878.96 452.84 807.55 426.83 805.47 426.83 874.88 426.83 875.36 447.5 878.47 452.84 878.96"/><polygon class="cls-12" points="416.83 872.71 416.83 802.74 392.82 800.7 392.82 868.71 392.82 870.23 395.56 870.64 416.83 872.71"/><polygon class="cls-12" points="386.82 798.7 360.82 796.7 360.82 863.61 360.82 865.25 386.82 867.54 386.82 798.7"/><polygon class="cls-12" points="352.81 794.7 334.81 792.69 334.81 859.53 334.81 861.17 352.81 863.46 352.81 794.7"/><polygon class="cls-12" points="252.79 783.64 234.79 781.73 234.79 845.46 234.79 846.4 252.79 849.12 252.79 783.64"/><polygon class="cls-12" points="226.79 780.58 208.78 778.69 208.78 841.51 208.78 842.49 226.79 845.2 226.79 780.58"/><polygon class="cls-12" points="200.78 841.2 200.78 776.58 182.78 774.69 182.78 837.51 182.78 838.56 198.4 840.92 200.78 841.2"/><polygon class="cls-12" points="174.78 837.2 174.78 774.36 156.77 772.52 156.77 833.61 156.77 834.64 170.28 836.68 174.78 837.2"/><polygon class="cls-12" points="148.77 770.54 130.77 768.69 130.77 830.49 130.77 830.72 148.77 833.44 148.77 770.54"/><polygon class="cls-12" points="124.77 768.19 106.76 766.37 106.76 827.1 124.77 829.82 124.77 768.19"/><polygon class="cls-12" points="524.85 815.26 496.85 813.05 496.85 885.91 524.85 890.13 524.85 815.26"/><polygon class="cls-12" points="564.86 820.94 534.86 818.7 534.86 891.64 557.65 895.08 564.86 820.94"/><polygon class="cls-12" points="102.76 764.53 72.59 762.16 74.82 822.29 102.76 826.5 102.76 764.53"/><polygon class="cls-41" points="270.8 785.83 258.79 784.69 258.79 850.02 270.8 851.83 270.8 785.83"/><polygon class="cls-41" points="302.8 789.55 280.8 786.69 280.8 852.71 280.8 853.34 302.8 856.66 302.8 789.55"/><polygon class="cls-41" points="328.81 860.38 328.81 792.74 310.81 790.69 310.81 857.87 323.27 859.74 328.81 860.38"/><polygon class="cls-12" points="395.56 870.64 392.82 870.23 392.82 870.38 395.56 870.64"/><polygon class="cls-12" points="102.76 826.5 74.82 822.29 102.76 826.7 102.76 826.5"/><polygon class="cls-42" points="554.86 448.95 617.21 453.95 639.54 740.68 561.19 745.68 554.86 448.95"/><polygon class="cls-12" points="655.88 911.72 655.88 743.68 569.86 739.68 559.86 897.72 655.88 911.72"/><polygon class="cls-11" points="711.89 895.72 655.88 911.72 655.88 743.68 699.89 737.68 711.89 895.72"/><polygon class="cls-43" points="411.16 739.01 434.5 451.62 531.52 448.95 525.19 745.68 411.16 739.01"/><polyline class="cls-7" points="475.09 451.58 466.16 742.23 467.1 742.29 475.47 451.78 475.09 451.58"/><polyline class="cls-7" points="496.35 450.01 489.43 743.59 490.18 743.59 496.68 451.21 496.35 450.01"/><polyline class="cls-7" points="518.35 450.01 509.72 744.78 510.29 744.78 518.67 450.63 518.35 450.01"/><polygon class="cls-19" points="559.9 745.68 554.86 449.54 558.84 449.54 566.53 745.15 559.9 745.68"/><polygon class="cls-44" points="563.19 451.58 574.2 735.01 578.86 735.01 566.2 450.91 563.19 451.58"/><polygon class="cls-44" points="575.86 451.58 588.53 729.35 592.53 729.35 580.53 452.54 575.86 451.58"/><polygon class="cls-44" points="592.53 452.54 603.2 727.35 607.54 727.35 595.53 452.87 592.53 452.54"/><polygon class="cls-44" points="617.38 725.01 603.51 455.4 607.54 455.4 620.54 725.01 617.38 725.01"/><polygon class="cls-44" points="617.21 453.95 638.45 726.68 633.54 725.68 616 453.95 617.21 453.95"/><polygon class="cls-16" points="563.19 451.58 573.99 729.75 572.86 729.9 562.6 453.27 563.19 451.58"/><polygon class="cls-16" points="575.97 453.97 588.53 729.35 587.7 729.35 575.97 453.97"/><polygon class="cls-45" points="562.86 731.18 621.37 723.68 708.39 731.18 655.88 738.68 562.86 731.18"/><polygon class="cls-46" points="579.7 732.95 620.12 726.93 620.12 735.96 579.7 732.95"/><polygon class="cls-47" points="620.12 726.93 695 733.09 655.88 738.68 620.12 735.96 620.12 726.93"/><polygon class="cls-48" points="562.86 742.68 655.88 749.18 655.88 738.68 562.86 731.18 562.86 742.68"/><polygon class="cls-49" points="708.39 740.18 655.88 749.18 655.88 738.68 708.39 731.18 708.39 740.18"/><polygon class="cls-50" points="736.8 807.51 722.9 811.81 722.9 885.12 736.8 880.03 736.8 807.51"/><polygon class="cls-50" points="756.1 802.25 741.65 806.76 741.65 878.26 756.1 872.98 756.1 802.25"/><polygon class="cls-50" points="775.06 797.09 762.15 800.88 762.15 870.77 775.06 866.05 775.06 797.09"/><polygon class="cls-50" points="793.58 792.05 780.66 795.99 780.66 864 793.58 859.28 793.58 792.05"/><polygon class="cls-50" points="809.6 787.69 797.66 791.18 797.66 857.79 809.6 853.42 809.6 787.69"/><polygon class="cls-50" points="831.14 781.82 814.92 786.82 814.92 851.48 831.14 845.55 831.14 781.82"/><polygon class="cls-50" points="855.77 775.12 836.42 780.55 836.42 843.62 855.77 836.54 855.77 775.12"/><polygon class="cls-50" points="875.96 769.62 862.18 773.88 862.18 834.2 875.96 829.16 875.96 769.62"/><polygon class="cls-50" points="889.5 765.93 879.68 768.61 879.68 827.8 889.5 824.21 889.5 765.93"/><polygon class="cls-50" points="903.08 762.24 893.93 764.84 893.93 822.59 903.08 819.25 903.08 762.24"/><polygon class="cls-50" points="916.01 758.71 907.19 760.81 907.19 817.75 916.01 814.52 916.01 758.71"/><polygon class="cls-50" points="928.41 755.34 919.94 757.64 919.94 812.95 920.5 812.88 928.41 809.99 928.41 755.34"/><polygon class="cls-50" points="938.42 752.61 932.19 754.31 932.19 808.61 938.42 806.33 938.42 752.61"/><polygon class="cls-50" points="954.4 748.26 943.94 751.11 943.94 804.31 953.89 800.68 954.4 748.26"/><path class="cls-51" d="M475.59,342.35V256.83s6.5-5,13-5.75v91.27Z"/><polygon class="cls-51" points="498.85 342.35 498.85 248.82 529.1 248.82 529.1 339.6 498.85 342.35"/><path class="cls-51" d="M540.86,340.09V248.82s16.5.5,24.76,3.5v87.77Z"/><polygon class="cls-51" points="572.61 342.32 572.61 254.58 578.36 256.86 578.36 344.22 572.61 342.32"/><path class="cls-52" d="M526,334.34a190.65,190.65,0,0,0-55.89,8.25v11.5c26.34-7.5,55.89-7,55.89-7s29.54-.5,55.89,7V342.6A190.65,190.65,0,0,0,526,334.34Z"/><polygon class="cls-7" points="434.3 451.62 407.83 739.01 410.85 739.17 436.01 451.58 434.3 451.62"/><polygon class="cls-53" points="454.09 451.58 449.84 451.58 440.11 740.71 443.41 740.9 454.09 451.58"/><polygon class="cls-53" points="475.09 451.58 471.34 451.58 462.66 742.03 466.16 742.23 475.09 451.58"/><polygon class="cls-53" points="496.35 450.01 492.84 450.01 484.95 743.33 489.43 743.59 496.35 450.01"/><polygon class="cls-53" points="518.35 450.01 514.6 450.01 506.22 744.57 509.72 744.78 518.35 450.01"/><polygon class="cls-7" points="434.5 451.62 531.52 448.95 531.49 450.29 434.5 452.87 434.5 451.62"/><polygon class="cls-7" points="454.09 451.58 443.41 740.9 444.46 740.96 454.51 452.34 454.09 451.58"/><polygon class="cls-19" points="617.21 453.95 554.86 448.95 554.86 452.87 617.38 456.12 617.21 453.95"/></svg>