<svg id="Layer_1" data-name="Layer 1" xmlns="http://www.w3.org/2000/svg" viewBox="0 0 1000 1000"><defs><style>.cls-1{fill:#534633;}.cls-2{fill:#c49b59;}.cls-3{fill:#392017;}.cls-4{fill:#19151a;}.cls-5{fill:#cea770;}.cls-6{fill:#4f4035;}.cls-7{fill:#cba06e;}.cls-8{fill:#59483b;}.cls-9{fill:#b78e5a;}.cls-10{fill:#56443e;}.cls-11{fill:#5f594e;}.cls-12{fill:#fde683;}.cls-13{fill:#8e7446;}.cls-14{fill:#5c5135;}.cls-15{fill:#7a694c;}.cls-16{fill:#695a3a;}.cls-17{fill:#7a6c48;}.cls-18{fill:#5a4c2b;}.cls-19{fill:#716446;}.cls-20{fill:#5f5436;}.cls-21{fill:#85715a;}.cls-22{fill:#dec878;}.cls-23{fill:#2a2628;}.cls-24{fill:#d1a76a;}.cls-25{fill:#574425;}.cls-26{fill:#26221c;}.cls-27{fill:#824723;}.cls-28{fill:#d04b29;}.cls-29{fill:#5d402a;}.cls-30{fill:#342b2c;}.cls-31{fill:#876335;}.cls-32{fill:#4d4131;}.cls-33{fill:#73542c;}.cls-34{fill:#152119;}.cls-35{fill:#4a4129;}.cls-36{fill:#a48859;}.cls-37{fill:#42180d;}.cls-38{fill:#351819;}.cls-39{fill:#220d0d;}.cls-40{fill:#35150e;}.cls-41{fill:#431e1c;}.cls-42{fill:#2e211c;}.cls-43{fill:#3f1f1a;}.cls-44{fill:#31181d;}.cls-45{fill:#492616;}.cls-46{fill:#ba9060;}.cls-47{fill:#352c21;}.cls-48{fill:#ae884c;}.cls-49{fill:#79623f;}.cls-50{fill:#6c583d;}.cls-51{fill:#c29e5b;}.cls-52{fill:#776044;}.cls-53{fill:#3c3322;}.cls-54{fill:#b07e55;}</style></defs><title>mausoleum</title><polygon class="cls-1" points="455.77 351.81 457.26 157.76 284.57 245.25 280.31 417.96 410.05 345.2 422.81 343 455.77 351.81"/><polygon class="cls-2" points="691.48 221.27 691.48 398.12 450.46 349.39 454.71 155.66 691.48 221.27"/><polygon class="cls-3" points="709.93 228.02 709.93 402.27 731.2 406.62 726.09 225.84 709.93 228.02"/><polygon class="cls-4" points="773.73 210.96 705.67 232.22 457.26 159.91 278.19 247.41 276.06 232.22 420.68 108.87 441.95 108.87 773.73 210.96"/><polygon class="cls-5" points="333.48 936.2 865.19 914.93 848.17 732.02 346.24 715.01 324.98 936.2 333.48 936.2"/><polygon class="cls-6" points="167.59 732.02 346.24 715.01 324.98 936.2 133.56 893.66 167.59 732.02"/><polygon class="cls-7" points="380.27 515.09 363.26 685.24 822.65 715.01 809.89 566.13 380.27 515.09"/><polygon class="cls-8" points="214.38 578.89 380.27 515.09 363.26 685.24 188.86 702.25 214.38 578.89"/><polygon class="cls-9" points="771.61 434.27 780.11 532.1 397.29 493.82 405.79 361.96 771.61 434.27"/><polygon class="cls-10" points="256.92 447.03 405.79 361.96 397.29 493.82 248.41 540.61 256.92 447.03"/><polygon class="cls-11" points="269.68 225.84 273.93 213.08 427.06 72.71 427.06 85.47 269.68 225.84"/><polygon class="cls-12" points="452.2 358.67 456.39 106.97 473.56 115.83 473.55 362.88 452.2 358.67"/><polygon class="cls-12" points="499.14 366.69 499.23 123.91 516.32 128.19 516.23 370.98 499.14 366.69"/><polygon class="cls-12" points="537.71 383.44 541.99 136.42 559.08 140.97 559.06 387.92 537.71 383.44"/><polygon class="cls-12" points="580.49 149.02 576 383.04 597.34 387.26 593.33 153.38 580.49 149.02"/><polygon class="cls-12" points="618.99 161.61 614.47 393.69 635.89 402.8 631.75 161.39 618.99 161.61"/><polygon class="cls-12" points="652.9 402.41 653.25 174.69 670.34 179.04 670 406.77 652.9 402.41"/><polygon class="cls-12" points="691.6 178.25 687.08 410.75 708.43 415.22 704.36 178.03 691.6 178.25"/><polygon class="cls-12" points="725.92 195.11 721.13 411.55 742.47 415.69 738.68 194.89 725.92 195.11"/><polygon class="cls-12" points="754.81 204.95 754.38 413.57 771.47 417.79 767.57 204.72 750.47 200.5 754.81 204.95"/><polygon class="cls-13" points="277.28 228.97 262.03 436.63 286.63 426.66 287.1 224.04 277.28 228.97"/><polygon class="cls-14" points="295.42 211.39 291.1 216.1 275.52 426.03 296.98 411.99 304.05 201.95 295.42 211.39"/><polygon class="cls-15" points="316.01 190.39 304.88 200.22 294.91 407.74 320.54 400.02 323.41 185.5 316.01 190.39"/><polygon class="cls-16" points="331.44 391.64 314.26 395.81 321.56 190.6 330.4 181.36 331.44 391.64"/><polygon class="cls-17" points="347.15 166.92 330.6 180.54 326.82 387.09 343.19 381.84 347.15 166.92"/><polygon class="cls-18" points="351.47 163.08 362.24 158.6 367.08 368.93 345.43 382.67 351.47 163.08"/><polygon class="cls-19" points="369.85 149.44 382.94 140.48 379.48 357.18 362.14 365.99 369.85 149.44"/><polygon class="cls-20" points="387.51 131.4 400.44 126.96 392.43 352.07 379.33 361.4 387.51 131.4"/><polygon class="cls-21" points="400.59 110.64 415.89 106.09 408.84 339.36 393.47 348.67 400.59 110.64"/><polygon class="cls-22" points="438.64 108.56 435.33 344.01 415.49 344.58 423.76 108.99 438.64 108.56"/><polygon class="cls-23" points="267.55 227.97 276.06 232.22 420.68 108.87 420.68 91.16 267.55 227.97"/><polygon class="cls-24" points="573.81 78.14 573.81 65.27 571.69 64.2 507.88 42.94 507.88 59.95 427.06 72.71 427.06 85.47 775.86 200.32 780.11 191.81 573.81 78.14"/><polygon class="cls-25" points="346.24 715.01 349.79 683.11 851.72 705.79 851.72 732.02 346.24 715.01"/><polygon class="cls-26" points="346.24 715.01 349.79 683.11 163.34 705.79 163.34 732.02 346.24 715.01"/><polygon class="cls-27" points="397.29 466.7 217.04 539.02 217.04 560.28 397.29 493.82 397.29 466.7"/><polygon class="cls-28" points="397.29 466.7 397.29 493.82 807.76 551.25 807.76 546.46 807.76 527.85 397.29 466.7"/><polygon class="cls-29" points="380.27 515.09 380.27 491.34 812.73 548.05 812.73 568.26 380.27 515.09"/><polygon class="cls-30" points="380.27 515.09 211.9 579.6 211.9 557.63 380.27 491.34 380.27 515.09"/><path class="cls-31" d="M573.81,65.27,507.88,42.94V22.38s37.57-5.67,65.93,26.94Z"/><polygon class="cls-32" points="507.88 59.95 507.88 22.38 473.56 65.27 507.88 59.95"/><polygon class="cls-33" points="420.68 108.87 441.95 108.87 773.73 210.96 775.86 200.32 427.06 85.47 420.68 91.16 420.68 108.87"/><polygon class="cls-34" points="406.58 338.56 256.29 430.73 256.29 447.03 406.58 368.34 406.58 338.56"/><polygon class="cls-35" points="324.98 982.99 327.83 908.55 137.49 875.01 127.18 929 324.98 982.99"/><polygon class="cls-36" points="324.98 982.99 870.15 961.72 870.15 891 327.83 908.55 324.98 982.99"/><polyline class="cls-37" points="296.01 384.79 315.1 372.21 314.26 395.81 294.91 407.74 296.01 384.79"/><polyline class="cls-38" points="327.24 364.21 327.1 387.3 314.26 395.18 315.1 372.21 327.24 364.21"/><polyline class="cls-39" points="343.72 353.35 343.28 377.38 327.1 387.3 327.24 364.21 343.72 353.35"/><polyline class="cls-40" points="363.05 340.62 346.28 351.67 345.61 375.95 362.14 365.99 363.05 340.62"/><polyline class="cls-41" points="409.82 312.25 394.26 320.87 393.47 348.67 408.84 338.82 409.82 312.25"/><polyline class="cls-42" points="393.53 321.14 380.46 329.65 379.54 355.58 392.61 347.08 393.53 321.14"/><polyline class="cls-43" points="363.05 340.62 379.92 329.79 379.5 356.32 362.14 365.99 363.05 340.62"/><polyline class="cls-44" points="264.3 405.69 277.69 396.87 275.99 418.85 262.75 426.71 264.3 405.69"/><polyline class="cls-45" points="296.01 384.79 294.91 408.22 275.93 419.25 277.69 396.87 296.01 384.79"/><polygon class="cls-46" points="777.99 906.96 832.22 906.96 832.22 962.78 777.99 967.57 777.99 906.96"/><polygon class="cls-47" points="777.99 906.96 709.4 906.96 753.53 967.57 777.99 967.57 777.99 906.96"/><rect class="cls-48" x="620.6" y="833.05" width="37.75" height="65.35"/><polygon class="cls-49" points="868.91 884.09 327.83 908.55 327.54 916.01 870.15 891 868.91 884.09"/><polygon class="cls-28" points="499.15 327.11 516.32 330.69 516.32 362.7 499.14 359.23 499.15 327.11"/><polygon class="cls-28" points="538.55 335.33 559.08 339.62 559.08 371.35 537.71 367.03 538.55 335.33"/><polygon class="cls-28" points="576.76 343.31 597.34 347.6 597.34 379.08 576 374.77 576.76 343.31"/><polygon class="cls-28" points="615.29 351.35 635.08 355.48 635.64 388.19 614.47 382.67 615.29 351.35"/><polygon class="cls-28" points="652.9 359.2 670.06 362.88 670.34 393.84 652.9 390.31 652.9 359.2"/><polygon class="cls-28" points="687.94 366.51 707.65 369.77 707.65 402.8 687.08 397.23 687.94 366.51"/><polygon class="cls-28" points="721.97 373.61 741.82 377.76 742.47 409.46 721.13 404.56 721.97 373.61"/><polygon class="cls-28" points="754.45 380.39 770.85 383.81 771.47 415.22 754.39 409.46 754.45 380.39"/><polygon class="cls-28" points="452.2 317.8 473.56 321.77 473.56 355.58 452.2 350.86 452.2 317.8"/><polygon class="cls-28" points="435.71 314.51 416.53 312.4 415.72 342.92 435.39 348.53 435.71 314.51"/><polygon class="cls-50" points="406.5 368.34 406.5 338.56 775.86 413.71 775.86 437.81 406.5 368.34"/><polygon class="cls-51" points="683.75 973.7 683.34 959.92 679.09 959.92 679.09 951.82 674.84 951.2 674.84 923.52 622.73 912.8 709.4 906.96 540.05 912.8 673.78 977.48 674.84 974.48 683.75 973.7"/><polygon class="cls-51" points="714.18 921.29 714.18 927.52 717.37 927.52 717.37 942.48 721.63 942.48 721.63 955.25 727.21 955.25 725.35 966.15 729.07 966.15 729.07 969.72 753.53 967.57 709.4 906.96 709.4 921.29 714.18 921.29"/><polygon class="cls-52" points="674.84 923.52 674.84 951.2 679.09 951.82 679.09 959.92 683.34 959.92 683.75 973.7 729.07 969.72 729.07 966.15 725.35 966.15 727.21 955.25 721.63 955.25 721.63 942.48 717.37 942.48 717.37 927.52 714.18 927.52 714.18 921.29 709.4 921.29 709.4 906.96 674.84 909.45 674.84 923.52"/><polygon class="cls-52" points="674.84 923.52 674.84 909.45 709.4 906.96 622.73 912.8 674.84 923.52"/><polygon class="cls-53" points="540.05 912.8 540.05 914.66 540.05 971.56 608.37 983.52 608.37 912.8 540.05 912.8"/><polygon class="cls-54" points="608.37 912.8 674.84 912.8 674.84 978 608.37 983.52 608.37 912.8"/></svg>