<svg id="Layer_1" data-name="Layer 1" xmlns="http://www.w3.org/2000/svg" viewBox="0 0 1000 1000"><defs><style>.cls-1{fill:#807a74;}.cls-2{fill:#918772;}.cls-3{fill:#6f6a61;}.cls-4{fill:#bebab1;}.cls-5{fill:#475662;}.cls-6{fill:#202320;}.cls-7{fill:#c6bfae;}.cls-8{fill:#676a68;}.cls-9{fill:#676869;}.cls-10{fill:#a5a6a4;}.cls-11{fill:#8e8889;}.cls-12{fill:#6b696a;}.cls-13{fill:#ba9f9a;}.cls-14{fill:#808488;}.cls-15{fill:#797d87;}.cls-16{fill:#627079;}.cls-17{fill:#526275;}.cls-18{fill:#9d9a97;}.cls-19{fill:#aeaca9;}.cls-20{fill:#a6a7a1;}.cls-21{fill:#acaba4;}.cls-22{fill:#afb0a9;}.cls-23{fill:#b5b0ac;}.cls-24{fill:#acada9;}.cls-25{fill:#aeaea7;}.cls-26{fill:#ababa7;}.cls-27{fill:#aeaca4;}.cls-28{fill:#a3a798;}.cls-29{fill:#a4ae9e;}.cls-30{fill:#a7aa9e;}.cls-31{fill:#9b9c8f;}.cls-32{fill:#a3a39d;}.cls-33{fill:#a0a7a3;}.cls-34{fill:#a5a899;}.cls-35{fill:#a1a494;}.cls-36{fill:#a5a3a1;}.cls-37{fill:#9c9692;}.cls-38{fill:#f5f0e4;}.cls-39{fill:#a9a896;}.cls-40{fill:#979692;}.cls-41{fill:#b0aeab;}.cls-42{fill:#7e8a71;}.cls-43{fill:#eae3da;}.cls-44{fill:#b9b6a6;}.cls-45{fill:#545a4a;}.cls-46{fill:#ebe8d5;}.cls-47{fill:#958c79;}.cls-48{fill:#9b9c8e;}.cls-49{fill:#969587;}.cls-50{fill:#eae2dd;}.cls-51{fill:#aeac9b;}.cls-52{fill:#8c8b80;}.cls-53{fill:#f9f4e9;}.cls-54{fill:#7e7b70;}.cls-55{fill:#faf7ed;}.cls-56{fill:#c5c9b8;}.cls-57{fill:#d5cfc2;}.cls-58{fill:#3e4d4f;}.cls-59{fill:#434d5b;}.cls-60{fill:#50626d;}.cls-61{fill:#3b464f;}.cls-62{fill:#2f3641;}.cls-63{fill:#5d6976;}.cls-64{fill:#43545c;}.cls-65{fill:#39454d;}.cls-66{fill:#4a5662;}.cls-67{fill:#59636b;}.cls-68{fill:#333d48;}.cls-69{fill:#545e6f;}.cls-70{fill:#535b62;}.cls-71{fill:#3e4a52;}.cls-72{fill:#5f6878;}.cls-73{fill:#535a60;}.cls-74{fill:#48535e;}.cls-75{fill:#66717c;}.cls-76{fill:#5c6267;}.cls-77{fill:#525a66;}.cls-78{fill:#656c73;}.cls-79{fill:#63707a;}.cls-80{fill:#393b3a;}.cls-81{fill:#34342e;}.cls-82{fill:#373734;}.cls-83{fill:#41423f;}.cls-84{fill:#3c3a37;}.cls-85{fill:#5d5a54;}.cls-86{fill:#504d45;}.cls-87{fill:#7d7a6c;}.cls-88{fill:#64595a;}.cls-89{fill:#6f7067;}.cls-90{fill:#6a6b5e;}.cls-91{fill:#747267;}.cls-92{fill:#59584a;}.cls-93{fill:#8d8f82;}.cls-94{fill:#c1bfb8;}.cls-95{fill:#838378;}.cls-96{fill:#e2ddd3;}.cls-97{fill:#6f6f62;}.cls-98{fill:#b1b0a7;}.cls-99{fill:#6a6957;}.cls-100{fill:#8b8776;}.cls-101{fill:#74715b;}.cls-102{fill:#7d7b69;}.cls-103{fill:#7d7f71;}.cls-104{fill:#7a7a6a;}.cls-105{fill:#67655a;}.cls-106{fill:#7a7769;}.cls-107{fill:#f9f6f1;}.cls-108{fill:#8c8b85;}.cls-109{fill:#dad8ce;}.cls-110{fill:#dad8d0;}.cls-111{fill:#514f40;}.cls-112{fill:#aeafa5;}.cls-113{fill:#797b6c;}.cls-114{fill:#dbdacd;}.cls-115{fill:#e8e8de;}.cls-116{fill:#6d6d5f;}.cls-117{fill:#c8c9c1;}.cls-118{fill:#e3e3de;}.cls-119{fill:#e9e4de;}.cls-120{fill:#d7d2c6;}.cls-121{fill:#dadacd;}.cls-122{fill:#99918b;}.cls-123{fill:#9c9e95;}.cls-124{fill:#e9e6d8;}.cls-125{fill:#e6e7da;}.cls-126{fill:#c1bbb5;}.cls-127{fill:#5e5f51;}.cls-128{fill:#f9f4ed;}.cls-129{fill:#787b7a;}.cls-130{fill:#82817f;}.cls-131{fill:#7c7d7a;}.cls-132{fill:#767778;}.cls-133{fill:#6c7272;}.cls-134{fill:#6f7474;}.cls-135{fill:#7b7f81;}.cls-136{fill:#747676;}.cls-137{fill:#6a787a;}.cls-138{fill:#6b7070;}.cls-139{fill:#dfdfd1;}.cls-140{fill:#869091;}.cls-141{fill:#f0ece0;}.cls-142{fill:#96968a;}.cls-143{fill:#b5b3aa;}.cls-144{fill:#faf5ed;}.cls-145{fill:#faf6ec;}.cls-146{fill:#8c917f;}.cls-147{fill:#d2d5c7;}.cls-148{fill:#aaa697;}.cls-149{fill:#748189;}</style></defs><title>temple</title><polygon class="cls-1" points="628.37 360.46 891 411 898 411 902.12 401.42 630 344 628 345 628.37 360.46"/><polygon class="cls-2" points="884 415 891 411 626 360 626 368 883 415.5 884 415"/><polygon class="cls-3" points="635 425 626 406 884 442 851 448 635 425"/><polygon class="cls-4" points="130 456 133 460 635 425 626 406 130 456"/><polygon class="cls-5" points="623.5 616.19 624.6 638 916 604 842 600 623.5 616.19"/><polygon class="cls-6" points="635 425 842 445 842 600 623.5 616.19 630.5 425 635 425"/><polygon class="cls-7" points="125 579.11 186.97 572 623.5 616.87 625 638 125 579.11"/><polygon class="cls-8" points="635 425 635 617.33 179 572 175.98 451.82 635 425"/><polygon class="cls-9" points="626.5 367.5 626.5 388.5 884.5 430.5 884.5 415.5 626.5 367.5"/><polygon class="cls-10" points="129.5 435.5 129.5 446.5 626.5 388.5 626.5 367.5 129.5 435.5"/><path class="cls-11" d="M630.5,344.5l155-36s5-2,7,0,110,93,110,93Z"/><polygon class="cls-12" points="658.5 349.5 784.5 318.5 881.5 396.5 658.5 349.5"/><polygon class="cls-13" points="792.5 307.5 277.5 388.5 132.5 422.5 628.31 344.84 630.5 344.5 792.5 307.5"/><path class="cls-14" d="M611.5,615.5V408l15-1.51,4,.56,5,220.44a41.12,41.12,0,0,1-24,0Z"/><path class="cls-14" d="M658.5,417.5l-6,206s18,8,26,0l-3-206Z"/><path class="cls-14" d="M693.5,619.5l3-193h18l2,193S704.5,624.5,693.5,619.5Z"/><path class="cls-15" d="M734,430h15l3,186s-15,3-21,0Z"/><path class="cls-15" d="M760,605l2-171h15l2,173s-4,8-19,3Z"/><path class="cls-15" d="M786,605V439h16l2,168S797,616,786,605Z"/><path class="cls-15" d="M817,605V442h13l4,163S830,614,817,605Z"/><path class="cls-16" d="M842,601V445h15l3,156S850,603,842,601Z"/><path class="cls-17" d="M867,599.86l1-155.24h14V601.89S876,602.9,867,599.86Z"/><path class="cls-18" d="M592,417.07V621.94s-18,7.13-24,0l5-204.87Z"/><path class="cls-19" d="M552,421.07l2,197.69s-14,3.19-24-3.19L533,420Z"/><polygon class="cls-20" points="479 427.88 479 609 458 609 462 427.88 479 427.88"/><polygon class="cls-21" points="447 432.59 447 607 428 607 431 430.55 447 432.59"/><polygon class="cls-22" points="415 437 415 604 398 604 400 434 415 437"/><polygon class="cls-23" points="389 439 389 600 371 600 374 437 389 439"/><polygon class="cls-24" points="361 441 362 600 346 600 347 441 361 441"/><polygon class="cls-25" points="338 446 338 595 322 595 324 442 338 446"/><polygon class="cls-26" points="315 446 315 592 297 592 301 446 315 446"/><polygon class="cls-27" points="293 450 293 589 276 587 280 446 293 450"/><polygon class="cls-28" points="271 446.6 271 587 256 587 259 446.6 271 446.6"/><polygon class="cls-29" points="253 450.1 253 585 237 585 240 448.06 253 450.1"/><polygon class="cls-30" points="234 450 234 583 219 583 223 450 234 450"/><polygon class="cls-31" points="143 463 143 572 130 571 133 460 143 460 143 463"/><polygon class="cls-32" points="155 458.88 154.14 574 142 573.83 146.43 458.88 155 458.88"/><polygon class="cls-33" points="219 451.83 219 583 203 579.9 206 451.83 219 451.83"/><polygon class="cls-34" points="203 456 203 581 189 579.81 189 456 203 456"/><polygon class="cls-35" points="186 458 187 578 172 576.98 174 458 186 458"/><polygon class="cls-36" points="171 458.35 172 575.65 157 576 160 458.35 171 458.35"/><polygon class="cls-37" points="625 638 635 693 982 631 916 604 625 638"/><polygon class="cls-38" points="124.5 578.5 624.5 637.5 635.5 692.5 18.5 594.5 124.5 578.5"/><polygon class="cls-39" points="130 436 122 432 626 360 626 368 130 436"/><polygon class="cls-40" points="122 432 628.37 360.46 628 344 132 422 120 425 120 432 122 432"/><polygon class="cls-41" points="515 425.88 515 614 494 614 498 425.88 515 425.88"/><path class="cls-42" d="M128,577v-6s10,1,14,0v7.07L128,578Z"/><polygon class="cls-43" points="134 579 134 577 127 576 127 578 134 579"/><rect class="cls-44" x="134" y="577" width="12" height="2"/><path class="cls-45" d="M141,578v-6s9.64,1,13.93,0v7Z"/><polygon class="cls-46" points="137 577 145 578 145 580 137 579 137 577"/><rect class="cls-47" x="145" y="578" width="11" height="2"/><path class="cls-48" d="M156,579.7v-6.76s9,2,16,0v7.43Z"/><polygon class="cls-49" points="164.5 582.4 164.5 579.7 177 579.03 177 581.73 164.5 582.4"/><polygon class="cls-50" points="152 578.35 164.5 579.7 164.5 582.4 152 580.38 152 578.35"/><path class="cls-45" d="M171.11,582v-6s11.61,1,16.77,0v7Z"/><polygon class="cls-46" points="169 581 177.42 582 177.42 584 169 583 169 581"/><rect class="cls-47" x="177.42" y="582" width="11.58" height="2"/><path class="cls-48" d="M188.67,583.54v-6.22s8,1.86,14.33,0v6.84Z"/><polygon class="cls-49" points="196 586.03 196 583.54 207 582.92 207 585.4 196 586.03"/><polygon class="cls-50" points="185 582.3 196 583.54 196 586.03 185 584.16 185 582.3"/><path class="cls-51" d="M203,585.17v-6.5a51.47,51.47,0,0,0,15.94,0v7.22H203Z"/><polygon class="cls-52" points="209.56 587.33 209.56 584.44 223 584.44 223 586.61 209.56 587.33"/><polygon class="cls-53" points="200 585.89 209.56 587.33 209.56 584.44 200 583.72 200 585.89"/><path class="cls-48" d="M218,586.33v-7.78s9.33,2.33,16.67,0v8.56Z"/><polygon class="cls-54" points="226 589.44 226 586.33 238 585.56 238 588.67 226 589.44"/><polygon class="cls-55" points="214 584.78 226 586.33 226 589.44 214 587.11 214 584.78"/><path class="cls-56" d="M236,590v-8s10.59,1,18,0v9Z"/><path class="cls-57" d="M611,631V619.58a66.76,66.76,0,0,0,24.5,0V631Z"/><path class="cls-58" d="M864,606V596a83.34,83.34,0,0,0,20,0v9Z"/><rect class="cls-59" x="860" y="604" width="19" height="4"/><polygon class="cls-60" points="890.67 606 879 608 879 604 891 604 890.67 606"/><path class="cls-61" d="M841,607v-9s7,1.13,19,0v9Z"/><rect class="cls-62" x="836" y="605" width="18" height="4"/><polygon class="cls-63" points="867 607.63 854 609 854 605 867 605.42 867 607.63"/><path class="cls-64" d="M815,602v8h21v-8S824,604,815,602Z"/><polygon class="cls-65" points="811 608 811 612 829 613 829 609 811 608"/><polygon class="cls-66" points="829 613 842 612 842 608 829 609 829 613"/><path class="cls-67" d="M806,613v-9s-12.41,1-21,0v9Z"/><polygon class="cls-68" points="799 612 799 616 782 615 782 611 799 612"/><rect class="cls-69" x="799" y="612" width="14" height="4"/><path class="cls-70" d="M759,616V606s12,1,21,0v10Z"/><rect class="cls-71" x="756" y="615" width="17" height="3"/><polygon class="cls-72" points="787 614 773 615 773 618 787 617 787 614"/><path class="cls-73" d="M731,619V608a69.82,69.82,0,0,0,22,0v11Z"/><polygon class="cls-74" points="745 618 719 617 719 622 745 622 745 618"/><polygon class="cls-75" points="761 617 745 618 745 622 761 621 761 617"/><polygon class="cls-76" points="683 620 723.5 620 705.23 623 683 620"/><path class="cls-77" d="M693,621V611a71.84,71.84,0,0,0,24,0v12H693Z"/><polygon class="cls-78" points="707 621 707 626 683 626 683 620 707 621"/><polygon class="cls-79" points="724 619.58 724 623.43 707 626 707 620.87 724 619.58"/><path class="cls-80" d="M876,441H862s-1.67,7.58.75,8.17,2.27-.67,6-1.08,6.51,0,7.28.54S876,441,876,441Z"/><path class="cls-81" d="M852.66,438.06l-18.25,1.22s-.58,6.64,1.5,7.81,2.58,1.92,6.33,0c3.5-1.79,5-2.56,8.74-2.32l.84.07C856.17,445.25,852.66,438.06,852.66,438.06Z"/><path class="cls-82" d="M824,434.13l-15.37,1.25s-3.44,8.77,1.31,9,3.16-.55,5.28-1.34a86,86,0,0,1,8.78-2Z"/><path class="cls-83" d="M798.15,430.68l-16.4.48s-3.58,10.44,2.08,9.81,6.76-4.26,12.38-2.83Z"/><path class="cls-15" d="M771.5,435.17l.12,0Z"/><path class="cls-15" d="M771.61,435.19l.1,0Z"/><path class="cls-15" d="M771.46,435.16h0Z"/><path class="cls-15" d="M771.71,435.22l.22.06Z"/><path class="cls-15" d="M771.93,435.27h0Z"/><path class="cls-15" d="M771.38,435.14v0l0,0Z"/><path class="cls-15" d="M771.4,435.14h0Z"/><path class="cls-15" d="M774.14,435.83Z"/><path class="cls-15" d="M773.38,435.64l.11,0Z"/><path class="cls-15" d="M772,435.28l.24.06Z"/><path class="cls-15" d="M773.82,435.75l.33.08Z"/><path class="cls-15" d="M773.49,435.67l.33.08Z"/><path class="cls-15" d="M772.19,435.34l.24.06Z"/><path class="cls-15" d="M772.43,435.4l.26.07Z"/><path class="cls-15" d="M772.7,435.47l.68.17Z"/><path class="cls-84" d="M771.38,435.17h0Z"/><path class="cls-84" d="M771.38,435.14l1-8.28-16.92.64s-3.25,10.38,0,10.63a7.15,7.15,0,0,0,3.46-.61l0,0S765.14,433.58,771.38,435.14Z"/><path class="cls-85" d="M727.13,424.27a28.88,28.88,0,0,1-.87,3.36s-3.25,8.25,1.13,7.5,8.7-3.66,14.16-3.68l1.5-8.69Z"/><path class="cls-86" d="M707.67,417.83l-16.33,1.25s-3.67,8.42-1.5,9.92,3.5,2.33,6,0,10.67-1.83,10.67-1.83Z"/><path class="cls-87" d="M666.45,412.93l-15.12,2.57s-4,5.65-1.5,8.33,4.5.83,5.83,0,9.86-1.33,9.86-1.33Z"/><path class="cls-88" d="M139,455h5l-1.95,4.46s-2.22.62-3.05.12l-1.08-4.37Z"/><path class="cls-89" d="M148.85,454.84l8.23-.46-2,4.35a13.15,13.15,0,0,1-5.54,1C146.94,459.47,148.85,454.84,148.85,454.84Z"/><path class="cls-90" d="M163,453h8l-2.06,4.58s-3.1,1.67-5.94.26S163,453,163,453Z"/><path class="cls-90" d="M177,451.84l11.19.16L186,456.84a10,10,0,0,1-4.34.42,8.18,8.18,0,0,0-3.62.16Z"/><path class="cls-91" d="M194,449.84l9,.16-1.75,4.84a6.64,6.64,0,0,1-3.5.42,5.38,5.38,0,0,0-2.92.16Z"/><path class="cls-92" d="M209,448.41l11.59.24-1.85,5.4s-.65.7-3.15.32-5-.62-5-.62Z"/><path class="cls-93" d="M237.8,447.9l-10.66-1.25,1.7,5.79s4.37.18,5.85.78S240.09,455.34,237.8,447.9Z"/><path class="cls-94" d="M219.3,447.43l7.84-.79a4.07,4.07,0,0,1,2,4.94c-1.08,3.44-2.83,2.85-4,.85a2.36,2.36,0,0,0-3.24-.85s-.67,3.92-3.1,2.47S219.3,447.43,219.3,447.43Z"/><path class="cls-95" d="M255.53,445.94l-11.05-1.3,1.77,6s4.53.19,6.07.81S257.91,453.66,255.53,445.94Z"/><path class="cls-96" d="M236.35,445.46l8.13-.82a4.22,4.22,0,0,1,2.1,5.12c-1.12,3.57-2.94,3-4.2.88a2.45,2.45,0,0,0-3.36-.88s-.7,4.07-3.22,2.56S236.35,445.46,236.35,445.46Z"/><path class="cls-97" d="M275.15,444.13l-11.61-1.29,1.58,6.33s5-.69,6.59,0S276.58,452.16,275.15,444.13Z"/><path class="cls-98" d="M255.52,443.48l8-.64s3,3.77,1.58,6.33-4.05.72-4.61-.66-2.27,0-2.27,0-2,4.64-4,1.35S255.52,443.48,255.52,443.48Z"/><path class="cls-99" d="M298.67,442.34l-13.5-1.5L287,448.2s5.83-.8,7.67,0S300.33,451.68,298.67,442.34Z"/><path class="cls-100" d="M320.17,440.19,307,438.64l2.11,7.16s5.4.23,7.23,1S323,449.38,320.17,440.19Z"/><path class="cls-101" d="M342.5,438.67l-13.67-2.25,2.25,9a50,50,0,0,1,7.66,0C340.75,445.75,347.08,447.67,342.5,438.67Z"/><path class="cls-102" d="M368,437l-14.55-3,1.25,9.2s6.67-.58,8.17,0S370.75,447.24,368,437Z"/><path class="cls-103" d="M394,433.85l-13.71-2.58,1.54,8.92s6.33-.81,8.17,0S398.67,445,394,433.85Z"/><path class="cls-104" d="M453.17,427,439,425.36l1.23,9.32s6.28-.65,7.45,0,4.46,3.15,6.73,1.48S454.33,428.33,453.17,427Z"/><path class="cls-105" d="M558.33,417.07l-12.77-2.44.78,11s7.49-.49,8.16,0,4,4.15,5.67.82S561.33,420.48,558.33,417.07Z"/><path class="cls-106" d="M585,423h8a34.59,34.59,0,0,0,5.25.82c1.25-.07,2.74-2.69,2.74-7s-2.74-5.16-2.74-5.16l-14-1.31Z"/><path class="cls-107" d="M603,408.59,625,407v11.87s-3.42.77-4-4.39l-9.55.52s-2.92,9.55-8.34,5.42S603,408.59,603,408.59Z"/><path class="cls-108" d="M639.05,408.71,625,406.5v12.26s6.05-1.46,7.28-2.92c0,0,3.58,15.18,6.78,6.42S639.05,408.71,639.05,408.71Z"/><path class="cls-109" d="M566.5,412.54l17.75-1.79s6.25,4,2.25,9.75-5.75.5-7.25-1.5H573s-3.5,8.32-7.75,4.16S566.5,412.54,566.5,412.54Z"/><path class="cls-110" d="M527.69,416.42l17.87-1.79s5,9.45,0,11.45-6.44-3.08-6.44-3.08H532s-.67,7.92-6.17,4.25S527.69,416.42,527.69,416.42Z"/><path class="cls-111" d="M485.33,423.83l-13.84-1.73.84,10.24a19,19,0,0,1,8.17,0c4.33,1,7.17,2.83,7.83,0S489.3,424.29,485.33,423.83Z"/><path class="cls-112" d="M456.68,423.58l14.82-1.49s4.67,6.57.84,10.24-4.67-3.33-4.67-3.33l-6.83.5s.52,6.33-4.16,5S455.85,425,456.68,423.58Z"/><path class="cls-113" d="M521,420.25l-14-1.73,2.15,9.36s6.38-.36,7.88.5,1.25,3.24,4,2.11S525,425.5,521,420.25Z"/><path class="cls-114" d="M490.52,420.18,507,418.52s5.52,5.87,2.15,9.36-4.5,1.24-6.62-1.39l-6.75-.12s-1.34,6.75-5.23,4.13S490.52,420.18,490.52,420.18Z"/><path class="cls-115" d="M427.33,436.83s-7.49,2.27-1.83-10.11L439,425.36s4.18,4.33,1.85,8.48-6.5-1.35-6.5-1.35l-4.5.17A6.73,6.73,0,0,1,427.33,436.83Z"/><path class="cls-116" d="M420,431l-13.08-2.47L407,431v6.83s5.33.25,7.17.42,3.67,1.75,7.83.92S420,431,420,431Z"/><path class="cls-117" d="M394,429.77l12.93-1.24s5,6.17,1.71,8.84S403,436,403,436h-5s-.86,5.48-4,3.91S392.31,431.71,394,429.77Z"/><path class="cls-118" d="M369.49,432.36l10.81-1.09s4.87,6.11,1.54,8.92-4.83-1.86-4.83-1.86l-5.17.17s-.67,5.5-3.83,3.33S367,433.71,369.49,432.36Z"/><path class="cls-119" d="M341.47,435.18l12-1.21s3.17,3.65,2,7.59-4.25,1.93-5,0a24.15,24.15,0,0,0-4.87,0s-.12,3.19-2.75,3.19S339.43,441.48,341.47,435.18Z"/><path class="cls-120" d="M319.26,437.41l9.58-1s4.17,1.75,3.08,6.92-5,2-5.33,0c0,0-2.5-.5-3.67.08,0,0-.75,3.17-2.25,3.33S315.18,445.65,319.26,437.41Z"/><path class="cls-121" d="M297.31,439.62l9.69-1a5,5,0,0,1,2.5,6.11c-1.33,4.25-3.5,3.52-5,1.05a2.92,2.92,0,0,0-4-1.05s-.83,4.84-3.83,3S297.31,439.62,297.31,439.62Z"/><path class="cls-100" d="M275.83,441.59l9.33-.75s3.5,4.39,1.83,7.36-4.72.84-5.36-.76-2.64,0-2.64,0-2.33,5.4-4.67,1.57S275.83,441.59,275.83,441.59Z"/><path class="cls-122" d="M201.82,449.16l7.22-.75a4.43,4.43,0,0,1,2.32,5.22c-.82,3.9-3.77,1.51-4,0a5.81,5.81,0,0,0-2.76.06s-.57,2.39-1.7,2.51S198.75,455.38,201.82,449.16Z"/><path class="cls-123" d="M186.41,450.45l7.57-.61s2.84,3.56,1.49,6-3.83.68-4.35-.62-2.14,0-2.14,0-1.89,4.38-3.79,1.27S186.41,450.45,186.41,450.45Z"/><path class="cls-124" d="M170.27,452.4l7-.56s2.63,3.29,1.38,5.52-3.54.63-4-.57-2,0-2,0-1.75,4.05-3.5,1.18S170.27,452.4,170.27,452.4Z"/><path class="cls-125" d="M156.21,453.38l6.74-.54s2.53,3.17,1.32,5.31-3.4.61-3.87-.55-1.91,0-1.91,0-1.68,3.9-3.37,1.13S156.21,453.38,156.21,453.38Z"/><path class="cls-126" d="M143,455.31l5.86-.47s2.2,2.75,1.15,4.62-3,.53-3.36-.48-1.66,0-1.66,0-1.46,3.39-2.93,1S143,455.31,143,455.31Z"/><path class="cls-127" d="M132.94,455.76l5.62-.5s2.11,2.91,1.1,4.88-2.84.56-3.23-.51-1.59,0-1.59,0-1.41,3.58-2.81,1S132.94,455.76,132.94,455.76Z"/><polygon class="cls-128" points="129.5 456.5 626.5 406.5 626.5 388.5 129.5 446.5 129.5 456.5"/><polygon class="cls-129" points="884.5 430.5 626.5 388.5 626.5 406.5 884.5 442.5 884.5 430.5"/><path class="cls-130" d="M668.33,412.34l14.68,2s4,6.92,1,9.94-7.27-1.82-7.27-1.82-4.23-.33-5.23,0-7,3.34-7-3.68S668.33,412.34,668.33,412.34Z"/><path class="cls-131" d="M707.67,417.83l13.21,1.84s4.29,7.16,1.29,10.16-6-2.67-6-2.67a37.09,37.09,0,0,0-4.33,0c-.67.17-1.66,2.67-4.17,2.67S703.67,422.65,707.67,417.83Z"/><path class="cls-132" d="M743.89,422.63l12,1.79s3.27,6.05.81,8.68-6-1.59-6-1.59a20.63,20.63,0,0,0-4.28,0c-.82.29-5.76,2.92-5.74-3.21S743.89,422.63,743.89,422.63Z"/><path class="cls-133" d="M771.86,426.63l11.6,1.72s3.15,5.83.78,8.37-5.74-1.53-5.74-1.53a19.87,19.87,0,0,0-4.13,0c-.79.28-5.55,2.81-5.53-3.1S771.86,426.63,771.86,426.63Z"/><path class="cls-134" d="M798.72,430.63l11.07,1.65s3,5.56.74,8S805,438.8,805,438.8a19,19,0,0,0-3.94,0c-.75.27-5.3,2.68-5.28-3S798.72,430.63,798.72,430.63Z"/><path class="cls-135" d="M825.54,433l10.36,1.8s2.81,6.09.69,8.74-5.13-1.6-5.13-1.6a15.19,15.19,0,0,0-3.69,0c-.71.29-5,2.94-4.94-3.23S825.54,433,825.54,433Z"/><path class="cls-136" d="M853.23,438l9.2,1.6s2.5,5.41.62,7.76-4.56-1.42-4.56-1.42a13.49,13.49,0,0,0-3.27,0c-.63.26-4.4,2.61-4.39-2.87S853.23,438,853.23,438Z"/><path class="cls-137" d="M876.59,441l8,1.6s2.17,5.41.54,7.76-4-1.42-4-1.42a10.25,10.25,0,0,0-2.85,0c-.55.26-3.83,2.61-3.82-2.87S876.59,441,876.59,441Z"/><path class="cls-138" d="M652,625V615s15,2.13,27,0v10l-21.63,2Z"/><polygon class="cls-139" points="644 629.5 644 625 656 625 656 631 644 629.5"/><polygon class="cls-140" points="644 629 644 632 625 634 625 629 644 629"/><polygon class="cls-141" points="625 629 625 634 607 632 607 628 625 629"/><path class="cls-142" d="M592.71,626v-9a190.06,190.06,0,0,1-25.41,0v9Z"/><polygon class="cls-143" points="578.94 629 578.94 625 598 625 598 628 578.94 629"/><polygon class="cls-144" points="578.94 629 562 627 562 624 578.94 625 578.94 629"/><polygon class="cls-145" points="242 588 242 591 230 589 230 586 242 588"/><polygon class="cls-146" points="256 591 242 591 242 588 256 588.6 256 591"/><path class="cls-147" d="M255,592v-9s9.91,2,19,0v9Z"/><polygon class="cls-146" points="264 594 264 590 280 590 280 593 264 594"/><polygon class="cls-38" points="264 594 251 592 251 589 264 590 264 594"/><path class="cls-48" d="M273.67,592.33v-7.78s10.89,2.33,19.44,0v8.56Z"/><polygon class="cls-54" points="283 595.44 283 592.33 297 591.56 297 594.67 283 595.44"/><polygon class="cls-55" points="269 590.78 283 592.33 283 595.44 269 593.11 269 590.78"/><path class="cls-148" d="M318,595v-9a169.55,169.55,0,0,1-24,0v9Z"/><polygon class="cls-143" points="305 598 305 594 323 594 323 597 305 598"/><polygon class="cls-144" points="305 598 289 596 289 593 305 594 305 598"/><path class="cls-48" d="M320,598.11V590s11.67,2.43,20.83,0v8.92Z"/><polygon class="cls-49" points="330 601.35 330 598.11 345 597.3 345 600.54 330 601.35"/><polygon class="cls-50" points="315 596.49 330 598.11 330 601.35 315 598.92 315 596.49"/><path class="cls-147" d="M344,602V592s9.91,2.22,19,0v10Z"/><polygon class="cls-146" points="353 604 353 600 369 600 369 603 353 604"/><polygon class="cls-38" points="353 604 340 602 340 599 353 600 353 604"/><path class="cls-48" d="M369.83,603v-8.61s11.28,2.58,20.14,0v9.47Z"/><polygon class="cls-54" points="379.5 606.44 379.5 603 394 602.14 394 605.58 379.5 606.44"/><polygon class="cls-55" points="365 601.28 379.5 603 379.5 606.44 365 603.86 365 601.28"/><path class="cls-147" d="M396.14,607.93v-9.31s10.25,2.07,19.66,0v9.31Z"/><polygon class="cls-146" points="405.45 610 405.45 605.86 422 605.86 422 608.97 405.45 610"/><polygon class="cls-38" points="405.45 610 392 607.93 392 604.83 405.45 605.86 405.45 610"/><path class="cls-51" d="M426,611v-9s12,2,23,0v10H426Z"/><polygon class="cls-52" points="436 614 436 610 456 610 456 613 436 614"/><polygon class="cls-53" points="420 612 436 614 436 610 420 609 420 612"/><path class="cls-148" d="M481,615v-9a169.55,169.55,0,0,1-24,0v9Z"/><path class="cls-48" d="M492,618V608s14,3,25,0v11Z"/><polygon class="cls-54" points="504 622 504 618 522 617 522 621 504 622"/><polygon class="cls-55" points="486 616 504 618 504 622 486 619 486 616"/><path class="cls-48" d="M529.17,621V611s14.39,3,25.69,0v11Z"/><polygon class="cls-49" points="541.5 625 541.5 621 560 620 560 624 541.5 625"/><polygon class="cls-50" points="523 619 541.5 621 541.5 625 523 622 523 619"/><polygon class="cls-143" points="468 618 468 614 486 614 486 617 468 618"/><polygon class="cls-144" points="468 618 452 616 452 613 468 614 468 618"/><polygon class="cls-149" points="656 625 656 631 686 629 686 627.25 686 627 686 625 656 625"/></svg>